<svg id="_008-google-plus" data-name="008-google-plus" xmlns="http://www.w3.org/2000/svg" width="15.421" height="9.867" viewBox="0 0 15.421 9.867">
  <path id="Path_386" data-name="Path 386" d="M5.411,88.471H7.82a3.063,3.063,0,1,1-.832-3.284.332.332,0,0,0,.451,0l.885-.833a.331.331,0,0,0,0-.481A4.915,4.915,0,0,0,5.032,82.52a4.934,4.934,0,1,0,4.827,5.21c0-.033.006-1.132.006-1.132H5.411a.331.331,0,0,0-.331.331V88.14A.331.331,0,0,0,5.411,88.471Z" transform="translate(0 -82.519)" fill="#242424"/>
  <path id="Path_387" data-name="Path 387" d="M326.909,164.681V163.5a.29.29,0,0,0-.29-.29h-1a.29.29,0,0,0-.29.29v1.184H324.15a.29.29,0,0,0-.29.29v1a.29.29,0,0,0,.29.29h1.184v1.184a.29.29,0,0,0,.29.29h1a.29.29,0,0,0,.29-.29v-1.184h1.184a.29.29,0,0,0,.29-.29v-1a.29.29,0,0,0-.29-.29Z" transform="translate(-312.961 -160.493)" fill="#242424"/>
</svg>
