<svg xmlns="http://www.w3.org/2000/svg" width="7.274" height="14.4" viewBox="0 0 7.274 14.4">
  <path id="_002-facebook" data-name="002-facebook" d="M126.914,7.669h1.578v6.5a.232.232,0,0,0,.232.232H131.4a.232.232,0,0,0,.232-.232V7.7h1.815a.232.232,0,0,0,.231-.206l.276-2.392a.232.232,0,0,0-.231-.259h-2.09v-1.5c0-.452.243-.681.724-.681h1.367a.232.232,0,0,0,.232-.232V.234A.232.232,0,0,0,133.724,0H131.84l-.086,0a3.609,3.609,0,0,0-2.36.89,2.475,2.475,0,0,0-.823,2.2V4.843h-1.657a.232.232,0,0,0-.232.232V7.437A.232.232,0,0,0,126.914,7.669Z" transform="translate(-126.682)" fill="#242424"/>
</svg>
