<svg id="_006-medium" data-name="006-medium" xmlns="http://www.w3.org/2000/svg" width="14.022" height="11.899" viewBox="0 0 14.022 11.899">
  <path id="Path_382" data-name="Path 382" d="M266.278,44.074,261.959,42l-.033-9.411a.3.3,0,0,1,.427-.269l4.094,1.969a.3.3,0,0,1,.169.268v9.307A.236.236,0,0,1,266.278,44.074Z" transform="translate(-252.594 -32.199)" fill="#242424"/>
  <path id="Path_383" data-name="Path 383" d="M136.334,39.6l-4.674-2.247,4.5-7.409a.3.3,0,0,1,.383-.114l4.152,2a.3.3,0,0,1,.125.423Z" transform="translate(-126.969 -29.8)" fill="#242424"/>
  <path id="Path_384" data-name="Path 384" d="M19.432,45.71l-4.674-2.247-4.284-6.977a.229.229,0,0,1,.294-.326l3.99,1.919Z" transform="translate(-10.066 -35.911)" fill="#242424"/>
  <path id="Path_385" data-name="Path 385" d="M4.353,42.952.134,40.923A.236.236,0,0,1,0,40.71V31.353a.229.229,0,0,1,.328-.206l4.364,2.1v9.494A.236.236,0,0,1,4.353,42.952Z" transform="translate(0 -31.077)" fill="#242424"/>
</svg>
