<svg xmlns="http://www.w3.org/2000/svg" width="14.334" height="11.923" viewBox="0 0 14.334 11.923">
  <path id="_010-twitter" data-name="010-twitter" d="M14.107,35.878a5.676,5.676,0,0,1-.988.333,3.082,3.082,0,0,0,.813-1.3h0a.162.162,0,0,0-.236-.188h0a5.7,5.7,0,0,1-1.511.624.385.385,0,0,1-.094.012.4.4,0,0,1-.265-.1,3.09,3.09,0,0,0-2.045-.772,3.3,3.3,0,0,0-.979.151A2.994,2.994,0,0,0,6.784,36.8a3.3,3.3,0,0,0-.073,1.138.111.111,0,0,1-.028.087.115.115,0,0,1-.085.039H6.586a8.1,8.1,0,0,1-5.569-2.975h0a.162.162,0,0,0-.265.021h0a3.094,3.094,0,0,0,.5,3.756,2.769,2.769,0,0,1-.7-.273h0a.162.162,0,0,0-.24.139h0a3.094,3.094,0,0,0,1.8,2.851H2.049a2.781,2.781,0,0,1-.521-.05h0a.162.162,0,0,0-.184.208h0A3.1,3.1,0,0,0,3.79,43.847a5.7,5.7,0,0,1-3.194.97H.239a.237.237,0,0,0-.231.178.245.245,0,0,0,.117.27,8.482,8.482,0,0,0,4.262,1.149,8.6,8.6,0,0,0,3.642-.773,8.043,8.043,0,0,0,2.665-2,8.755,8.755,0,0,0,1.632-2.733,8.633,8.633,0,0,0,.555-2.991v-.047a.526.526,0,0,1,.2-.409,6.108,6.108,0,0,0,1.229-1.349h0a.162.162,0,0,0-.2-.237Z" transform="translate(0 -34.491)" fill="#242424"/>
</svg>
