<svg xmlns="http://www.w3.org/2000/svg" width="17.438" height="17.438" viewBox="0 0 17.438 17.438">
  <path id="_011-spotify" data-name="011-spotify" d="M8.719,0a8.719,8.719,0,1,0,8.719,8.719A8.719,8.719,0,0,0,8.719,0Zm3.795,12.654a.6.6,0,0,1-.816.214,8.777,8.777,0,0,0-4.62-1.025,11.46,11.46,0,0,0-2.4.316.6.6,0,0,1-.316-1.15,12.415,12.415,0,0,1,2.643-.357,11.64,11.64,0,0,1,2.546.184,8.593,8.593,0,0,1,2.745,1A.6.6,0,0,1,12.514,12.654Zm1.108-2.3a.706.706,0,0,1-.966.253A10.4,10.4,0,0,0,7.184,9.391a13.578,13.578,0,0,0-2.839.375A.706.706,0,0,1,3.971,8.4,14.7,14.7,0,0,1,7.1,7.98a13.79,13.79,0,0,1,3.016.218,10.18,10.18,0,0,1,3.252,1.187A.706.706,0,0,1,13.622,10.351ZM14.3,8.258a.862.862,0,0,1-.436-.118C9.455,5.561,3.731,7.094,3.674,7.11a.866.866,0,0,1-.46-1.67,18.032,18.032,0,0,1,3.84-.519,16.918,16.918,0,0,1,3.7.268,12.485,12.485,0,0,1,3.989,1.456A.866.866,0,0,1,14.3,8.258Z" fill="#242424"/>
</svg>
