<svg xmlns="http://www.w3.org/2000/svg" width="114.517" height="22.903" viewBox="0 0 114.517 22.903">
  <g id="storybook" transform="translate(0)">
    <path id="Path_452" data-name="Path 452" d="M118.78,35.076a10.063,10.063,0,0,1-2.822-.394,6.684,6.684,0,0,1-2.254-1.09l.916-2.034a7.173,7.173,0,0,0,4.2,1.3,3.616,3.616,0,0,0,1.86-.394,1.218,1.218,0,0,0,.65-1.09,1.077,1.077,0,0,0-.6-.971,7.96,7.96,0,0,0-2.116-.678,11.721,11.721,0,0,1-2.721-.843,3.554,3.554,0,0,1-1.484-1.218,3.227,3.227,0,0,1-.467-1.786,3.518,3.518,0,0,1,.65-2.089,4.336,4.336,0,0,1,1.823-1.438,6.61,6.61,0,0,1,2.712-.522,8.722,8.722,0,0,1,2.648.4,5.427,5.427,0,0,1,2.025,1.081l-.916,2.034a6.232,6.232,0,0,0-3.738-1.3,3.122,3.122,0,0,0-1.759.431,1.351,1.351,0,0,0-.641,1.182,1.061,1.061,0,0,0,.247.724,2.054,2.054,0,0,0,.824.5,12.586,12.586,0,0,0,1.64.458,9.108,9.108,0,0,1,3.582,1.411,2.867,2.867,0,0,1,1.09,2.382,3.406,3.406,0,0,1-1.411,2.886,6.468,6.468,0,0,1-3.939,1.054Zm11.983-2.052a7.393,7.393,0,0,0,.88-.055l-.147,2.015a7.769,7.769,0,0,1-1.063.073,4.234,4.234,0,0,1-3-.9,3.6,3.6,0,0,1-.944-2.73V27.986h-1.7v-2.07h1.7V23.277h2.767v2.638h2.254v2.07h-2.254v3.426q0,1.612,1.5,1.612Zm6.431,2.034a5.252,5.252,0,0,1-2.51-.577,4.047,4.047,0,0,1-1.667-1.631,5.549,5.549,0,0,1,0-4.965,3.989,3.989,0,0,1,1.667-1.622,5.831,5.831,0,0,1,5.02,0,3.988,3.988,0,0,1,1.667,1.622,5.549,5.549,0,0,1,0,4.965,4.046,4.046,0,0,1-1.667,1.631,5.25,5.25,0,0,1-2.51.577Zm0-2.107q2.016,0,2.016-2.584a3.035,3.035,0,0,0-.522-1.942,1.815,1.815,0,0,0-1.493-.641q-2.015,0-2.015,2.583t2.015,2.584Zm12.423-4.984-1.557.165a2.409,2.409,0,0,0-1.631.65,2.1,2.1,0,0,0-.476,1.438v4.691h-2.767v-9h2.657v1.521a2.98,2.98,0,0,1,2.8-1.7l.806-.055.165,2.29Zm8.039-2.034h2.712L154.945,38.21h-2.8l1.722-3.793-3.7-8.483h2.877l2.272,5.717,2.345-5.717Zm9.125-.238a3.688,3.688,0,0,1,3.472,2.19,5.612,5.612,0,0,1,.5,2.446,5.733,5.733,0,0,1-.5,2.464,3.952,3.952,0,0,1-1.411,1.667,3.672,3.672,0,0,1-2.061.6,3.574,3.574,0,0,1-1.686-.394,2.8,2.8,0,0,1-1.154-1.09v1.338h-2.73V21.994h2.767v5.13a2.734,2.734,0,0,1,1.145-1.054,3.619,3.619,0,0,1,1.658-.376Zm-.806,7.256a1.789,1.789,0,0,0,1.5-.687,3.1,3.1,0,0,0,.531-1.933,2.9,2.9,0,0,0-.531-1.878,1.83,1.83,0,0,0-1.5-.65,1.809,1.809,0,0,0-1.5.669,2.982,2.982,0,0,0-.531,1.9,3.016,3.016,0,0,0,.531,1.915A1.809,1.809,0,0,0,165.975,32.951Zm10.792,2.107a5.251,5.251,0,0,1-2.51-.577,4.048,4.048,0,0,1-1.667-1.631,5.55,5.55,0,0,1,0-4.965,3.99,3.99,0,0,1,1.667-1.622,5.831,5.831,0,0,1,5.02,0,3.991,3.991,0,0,1,1.667,1.622,5.55,5.55,0,0,1,0,4.965,4.048,4.048,0,0,1-1.667,1.631,5.251,5.251,0,0,1-2.51.577Zm0-2.107q2.016,0,2.015-2.584a3.035,3.035,0,0,0-.522-1.942,1.815,1.815,0,0,0-1.493-.641q-2.015,0-2.015,2.583T176.767,32.951Zm10.316,2.107a5.251,5.251,0,0,1-2.51-.577,4.048,4.048,0,0,1-1.667-1.631,5.55,5.55,0,0,1,0-4.965,3.991,3.991,0,0,1,1.667-1.622,5.831,5.831,0,0,1,5.02,0,3.99,3.99,0,0,1,1.667,1.622,5.55,5.55,0,0,1,0,4.965,4.048,4.048,0,0,1-1.667,1.631,5.251,5.251,0,0,1-2.51.577Zm0-2.107q2.016,0,2.015-2.584a3.035,3.035,0,0,0-.522-1.942,1.815,1.815,0,0,0-1.493-.641q-2.015,0-2.015,2.583T187.083,32.951Zm15.707,1.961H199.4L195.956,30.9v4.013h-2.767V21.994h2.767v7.769l3.316-3.829h3.3L198.8,30.221Z" transform="translate(-88.273 -16.947)" fill="#242424"/>
    <g id="Group_1308" data-name="Group 1308" transform="translate(0 0)">
      <path id="Path_453" data-name="Path 453" d="M.71,21.1,0,2.2A1.152,1.152,0,0,1,1.08,1.007L17.16,0A1.152,1.152,0,0,1,18.381,1.08q0,.036,0,.072v20.6A1.152,1.152,0,0,1,17.232,22.9H17.18l-15.371-.69A1.152,1.152,0,0,1,.71,21.1Z" transform="translate(0 0)" fill="#ff4785"/>
      <path id="Path_454" data-name="Path 454" d="M30.007,2.815l.11-2.642L32.325,0l.1,2.724a.172.172,0,0,1-.278.141l-.852-.671-1.008.765a.172.172,0,0,1-.275-.144ZM27.182,8.633c0,.448,3.018.233,3.423-.081,0-3.051-1.637-4.654-4.635-4.654s-4.677,1.628-4.677,4.07c0,4.253,5.74,4.335,5.74,6.655a.917.917,0,0,1-1.02,1.038c-.914,0-1.276-.467-1.233-2.054,0-.344-3.487-.452-3.593,0-.271,3.847,2.126,4.956,4.868,4.956,2.657,0,4.741-1.417,4.741-3.981,0-4.559-5.825-4.437-5.825-6.7a.96.96,0,0,1,1.084-1.038C26.481,6.848,27.246,6.923,27.182,8.633Z" transform="translate(-16.432 0)" fill="#fff"/>
    </g>
  </g>
</svg>
